<svg version="1.2" xmlns="http://www.w3.org/2000/svg" viewBox="0 0 2091 1533">
	<style>
		.s0 { fill: #48a75c;stroke: #000000;stroke-miterlimit:10;stroke-width: 3 } 
		.s1 { fill: #f4f5f9;stroke: #000000;stroke-miterlimit:10;stroke-width: 3 } 
		.s2 { fill: #f4f5f9 } 
		.s3 { fill: #48a75c;stroke: #48a75c;stroke-miterlimit:10;stroke-width: 5 } 
	</style>
	<g id="Layer 1">
		<path id="Shape 1" fill-rule="evenodd" class="s0" d="m1322.61 466.09c-39.87-17.9-86.5-19.8-129.53-18.75-86.91 2.11-168.98 20.81-252.67 43.07-64.16 17.07-145.13 40.1-208.7 6.18-9.08-4.84-16.01-12.12-24.03-18.36l-638.68 1032.88 2001.08-0.61z"/>
		<path id="Shape 1 copy" fill-rule="evenodd" class="s1" d="m708.19 476.49c8.02 6.23 13.09 14.26 22.16 19.1 63.57 33.91 144.54 10.89 208.7-6.18 83.69-22.26 165.76-40.96 252.67-43.07 43.04-1.05 86.6-1.83 126.68 14.83l-312.89-362.5z"/>
		<path id="Shape 8" fill-rule="evenodd" class="s2" d="m670.41 540.68l61.14 66.96 148.38-83.35 104.55 80.48 80.98-52.84 91.77 32.29 72.29-65.99 84.72 21.05 20.69-53.5c-28.23-58.88-150.87-99.58-147.98-104.84 8.18-14.93-307.65-218.58-516.54 159.74z"/>
		<path id="Shape 9" fill-rule="evenodd" class="s3" d="m65.62 1511.15l2007.6-1.37"/>
	</g>
</svg>
