<svg version="1.2" xmlns="http://www.w3.org/2000/svg" viewBox="0 0 744 1515" width="744" height="1515">
	<style>
		.s0 { fill: #000000 } 
	</style>
	<g>
		<path class="s0" d="m358.16 6.98c-0.36 3.81-0.63 13.79-0.63 22.13 0 8.34-0.27 16.96-0.54 19.14l-0.55 3.99-10.61-10.7c-5.8-5.81-11.24-10.61-12.06-10.61-1.72 0-2.81 3.62-2 6.98 1.09 4.62 3.9 9.16 11.7 18.95 4.27 5.35 8.44 11.16 9.25 12.97 1 2.18 1.55 6.98 1.91 14.78 0.36 11.7 0 16.15-1.63 16.15-1.18 0-3.63-4.9-3.63-7.17 0-0.91-1.09-2.54-2.36-3.44-2.09-1.55-2.45-2.73-3.45-11.25-0.63-5.26-1.9-11.06-2.81-12.97-1.72-3.63-4.8-5.71-7.25-4.71-2 0.72-4.36 6.62-3.72 9.25 0.27 1.08 0.18 2.26-0.36 2.63-1.36 0.81-7.17-2-12.34-5.99-3.9-2.99-5.35-3.63-8.16-3.36-1.9 0.19-3.72 0.91-4.26 1.82-1.54 2.27 0.63 8.07 5.26 14.06 2.27 2.9 5.98 7.7 8.25 10.61 2.18 2.99 3.99 5.98 3.81 6.8-0.18 0.81-2.09 2.36-4.35 3.44-5.08 2.63-5.81 3.99-4.54 7.98 1.91 5.81 8.35 6.81 14.06 2.27 1.9-1.54 3.81-2.45 4.17-2.08 0.45 0.45 1 4.08 1.36 8.07 0.45 5.44 0.27 7.52-0.54 8.07-0.64 0.36-4.9-1.18-10.16-3.72-8.71-4.17-9.16-4.26-10.34-2.63-0.72 0.91-1.27 2.63-1.27 3.63 0 2.72 4.63 8.89 11.25 15.23l5.53 5.17-3.36-0.54c-4.62-0.73-6.53 0.09-8.52 3.81-1.63 2.99-2 3.17-5.17 2.81-2.09-0.27-7.62-3.18-14.96-7.71-15.51-9.7-22.5-13.15-25.22-12.51-2.9 0.72-3.53 3.99-1.72 8.34 2 4.71 5.35 8.07 11.52 11.52l5.26 2.9-6.26 1c-7.25 1.27-10.97 3.35-10.97 6.25 0 3.72 5.26 6.62 9.25 5.08 1.99-0.72 2.54-0.45 4.26 1.82 1.36 1.9 2.72 2.63 4.63 2.63 3.08 0 3.62 1.36 0.9 2.26-1 0.28-1.81 0.91-1.81 1.36 0 0.91 9.16 9.07 10.16 9.07 0.45 0 0.72 0.37 0.72 0.82 0 0.54-1.9 1.18-4.26 1.45-6.71 0.91-15.06 3.17-17.23 4.62-3.99 2.54-1.54 8.8 4.26 11.25 2.27 0.91 3.26 0.91 6.35-0.36 1.99-0.82 5.71-1.45 8.25-1.45 4.17 0 4.99 0.36 7.53 3.17 2.45 2.72 3.54 3.17 6.8 3.17 3.17 0 4.35-0.54 6.44-2.72 2.27-2.44 3.08-2.72 7.8-2.72h5.35l-3.63 2.91c-9.25 7.52-10.43 10.06-5.53 12.33 3.26 1.63 9.34 0.09 12.88-3.17 1.27-1.18 2.63-2 2.81-1.73 0.27 0.27 0.09 2.63-0.45 5.26-1.18 6.26-0.28 7.98 4.26 7.98 3.53 0 6.44-2.08 6.44-4.62 0.09-0.73 0.72-0.09 1.45 1.27 1.27 2.45 1.54 2.54 2.99 1.18 0.91-0.82 2.54-3.54 3.72-5.99 1.18-2.54 2.36-4.53 2.72-4.53 0.63 0 4.08 7.98 5.44 12.6 1.63 5.81-0.18 6.62-17.23 8.16-22.31 2.09-27.84 1.18-40.99-6.44-13.61-7.98-21.22-9.88-23.76-5.98-1.27 2.09 2.63 6.17 9.88 10.34 3 1.63 5.17 3.08 4.81 3.08-2.45 0-14.69-3.17-20.5-5.44-6.25-2.45-18.59-9.88-25.66-15.51-2.81-2.26-8.89-3.17-11.61-1.81-2.36 1.27-2.54 5.08-0.45 8.16 0.9 1.27 1.18 2.36 0.63 2.9-0.45 0.46-4.44 1.27-8.98 1.82-16.41 1.81-20.49 2.54-21.76 3.53-5.17 4.36 5.89 11.61 21.04 13.7 4.62 0.63 8.79 0.63 13.6 0 9.43-1.36 9.61-1.27 4.26 1.81-4.8 2.81-10.24 8.16-10.24 10.16 0 2.9 2.81 5.17 6.43 5.17 5.08 0 8.62-1.73 15.33-7.44 6.89-5.8 9.07-7.07 12.15-7.07 4.27 0 3.36 1.72-2.35 4.62-6.26 3.09-9.8 5.9-9.8 7.71 0 0.64 1.45 2.27 3.18 3.63 2.53 1.9 3.17 2.99 3.17 5.35 0 1.72 0.63 3.72 1.45 4.44 1.72 1.82 5.44 1.91 6.08 0.09 0.72-1.81 6.89-4.8 13.24-6.25 6.25-1.45 6.16-1.45 12.87-6.62 5.36-4.18 6.26-4.54 6.26-2.72 0 1.72-6.07 7.34-12.69 11.78-7.26 4.81-8.71 6.81-6.72 9.53 1 1.54 2.27 1.99 5.17 1.99 3.54 0 5.63-0.9 11.25-5.08l1.99-1.45-0.54 4.99c-0.27 2.72-0.09 5.17 0.36 5.44 1.64 1 5.26-1.72 9.16-6.89 4.27-5.62 6.44-6.35 8.62-3.17l1.36 2.08 3.08-2.81c2.63-2.54 3.72-2.9 9.98-3.36 13.33-0.9 26.12-10.52 26.12-19.68 0-4.17 1.54-3.26 2.72 1.73 0.9 3.9 0.81 4.99-0.46 7.8-3.26 6.8-19.58 18.86-41.8 30.74-6.99 3.81-13.15 6.89-13.7 6.89-0.54 0-7.25-3.08-15.05-6.89-15.06-7.25-20.14-8.8-21.13-6.44-0.55 1.63 2.17 7.44 5.53 11.43 2.72 3.17 2.27 3.63-1.09 1-1.63-1.27-3.72-1.82-6.8-1.82-3.17 0-6.89-1.09-13.15-3.72-9.8-4.17-10.7-3.99-10.7 2.18v3.81l-6.35 0.27c-4.26 0.18-7.53-0.18-10.25-1.18-4.62-1.81-7.8-1.27-11.24 2.09-1.91 1.72-2.54 3.17-2.54 5.71 0 3.99 1.45 4.81 6.62 3.63 1.81-0.45 3.35-0.45 3.35-0.09 0 0.45-1.45 2.45-3.17 4.53-1.72 2.09-3.18 4.08-3.18 4.54 0 1.09 3.36 1.72 7.17 1.18 1.99-0.28 4.71-0.28 5.98 0.09 2.27 0.54 2.36 0.81 1.73 4.71l-0.55 4.08 6.17-0.27 6.26-0.27-0.27 4.17c-0.19 2.36 0.09 4.54 0.54 4.81 0.45 0.27 2.99-0.36 5.53-1.36 3.99-1.72 4.99-1.82 7.35-0.82 6.44 2.63 8.52 10.34 3.99 14.6l-2.36 2.18-1.9-2.36c-2.63-3.17-4.81-4.17-10.43-4.99-5.99-0.72-11.07 0.19-11.07 2.09 0 1.18-0.72 1.27-4.53 0.82-3.81-0.55-4.63-0.37-5.17 0.9-0.45 1.09 0.72 2.72 4.08 5.72 2.54 2.26 4.9 5.26 5.26 6.62 0.63 2.72-1.09 11.33-2.45 12.06-1.09 0.72-4.08-1-10.34-6.08-8.79-7.16-16.14-9.88-17.41-6.53-0.27 0.73 0.45 3.45 1.63 5.9 1.82 3.9 1.91 4.71 0.82 5.44-1.82 1.09-1.63 1.09-13.6-1-12.97-2.27-19.05-2.36-19.05-0.45 0 3.63 12.88 11.15 20.41 12.06 5.07 0.54 5.71 1.45 3.26 4.81-1 1.36-1.9 3.17-1.9 3.9 0 1.81 4.8 3.26 10.61 3.26 5.71 0 8.43 1.18 8.43 3.54 0 2.63 2.18 3.81 7.89 4.35 2.9 0.27 5.71 0.91 6.26 1.36 0.63 0.45 1.36 2.72 1.72 4.99l0.64 4.26 5.07-5.35 5.08-5.35 1 3.17c0.82 2.27 1.54 3 2.9 2.81 2.18-0.27 3.45 1.18 7.08 7.89 1.54 2.82 4.08 5.99 5.89 7.17 1.72 1.18 3.99 3.81 4.99 5.89 1.54 3.09 2.45 3.9 5.89 4.9 2.36 0.73 5.45 2.63 7.71 4.81 2 1.99 4.08 3.63 4.63 3.63 0.54 0 2.72-1.55 4.99-3.36 6.98-5.8 7.7-6.26 3.99-2.18-6.26 6.71-15.87 10.61-37.46 15.06-17.23 3.53-22.76 2.99-33.64-3.54-9.62-5.71-12.52-4.99-11.43 2.99 0.54 4.08 0.36 4.63-1.45 5.54-2.81 1.54-12.15 0.45-16.05-1.91-2-1.09-3.99-1.63-5.26-1.36-2.54 0.64-7.62 4.9-7.62 6.35 0 0.63 3.08 3.08 6.8 5.44 7.8 4.9 8.8 6.44 8.43 11.7l-0.27 3.81 6.35 0.45 6.35 0.46v4.26c0 5.8 1.81 7.52 8.07 7.52 3.72 0 5.62-0.54 8.52-2.53 2.09-1.36 3.99-2.45 4.27-2.45 0.27 0-0.37 1.45-1.27 3.26-1.82 3.45-1.73 5.17 0.72 7.89 1.18 1.45 2.27 1.54 9.34 1 6.9-0.54 7.98-0.36 7.98 0.82 0 3.53-8.16 7.07-20.49 8.88-8.44 1.27-14.87 0-20.68-4.17-7.44-5.26-13.15-5.08-11.97 0.55 0.64 3.17-1.36 3.99-7.71 3.08-6.8-0.91-15.42-0.73-16.5 0.36-1.55 1.54 1.63 4.35 7.8 6.62 6.98 2.72 10.97 6.26 10.33 9.43-0.99 5.54 6.08 8.53 13.79 5.72 5.35-1.82 5.71-1.54 6.44 5.08l0.45 4.53h5.44c4.99 0 5.44 0.18 5.08 1.81-0.18 1-0.45 2.82-0.45 4.09-0.09 2.17 0.09 2.26 4.71 1.99 4.27-0.36 4.9-0.18 5.35 1.54 0.64 2.54 3.81 2.45 7.17-0.09 1.45-1.09 5.8-4.99 9.61-8.52 7.8-7.44 11.7-9.07 17.32-7.53 4.08 1.09 8.44 4.62 7.53 6.08-0.45 0.72-3.45 1.08-8.16 1.08-11.16 0-12.15 2.54-5.08 13.15 1.9 2.91 3.36 5.63 3.08 6.08-0.27 0.36-1.72 0.73-3.17 0.73-3.54 0-8.16 1.99-12.33 5.35-1.91 1.45-5.45 3.17-7.8 3.71-2.45 0.55-5.54 1.82-6.99 2.82-2.08 1.54-4.53 2.08-13.33 2.72-5.89 0.36-12.51 1.36-14.78 2.17-2.36 0.82-7.53 1.54-12.33 1.64-5.08 0.18-8.8 0.63-9.71 1.36-0.72 0.63-1.81 2.9-2.36 5.07-0.54 2.18-1.63 4.45-2.44 5.08-1.55 1.36-16.78 3.54-24.58 3.63-4.17 0-4.81 0.27-4.81 1.72 0 3.63 13.97 11.43 22.22 12.43 7.35 0.81 7.35 0.81 3.27 5.71-2.09 2.45-3.72 4.9-3.72 5.44 0 0.64 1.9 1 4.8 1 6.08 0 7.35 0.82 6.81 4.53-0.55 3.81 0.45 4.09 9.06 2.36 8.26-1.63 12.7-1.81 16.06-0.54 2.26 0.81 2.35 1.18 1.72 4.99-0.45 3.26-0.27 4.17 0.91 4.62 2.17 0.82 5.71-1.9 8.79-6.89 1.55-2.54 3.18-4.54 3.63-4.54 0.45 0 0.82 1.73 0.82 3.9 0 6.44 1.09 7.17 11.61 7.71 9.16 0.46 9.16 0.46 11.79-2.17 1.45-1.45 3.53-5.17 4.8-8.35 1.18-3.08 2.36-5.62 2.63-5.62 0.36 0 1.45 2.81 2.63 6.35 1.09 3.44 2.36 6.35 2.72 6.35 0.37 0 2.63-2.63 5.08-5.9 2.45-3.26 4.81-5.89 5.08-5.89 0.36 0 0.91 1.99 1.27 4.35 1.18 8.8 3.9 8.62 7.71-0.45 2.81-6.71 3.35-7.53 5.08-7.53 1.08 0 1.27 0.63 0.81 2.81-0.63 2.9-0.63 2.9 2.36 2.27 1.72-0.36 5.44-0.82 8.34-1.18 4.54-0.45 5.17-0.36 5.17 1.09 0 5.08-20.58 15.87-30.29 15.87-2.81 0-6.34 1.63-10.88 4.9-1.9 1.36-4.81 1.81-14.15 2.35-6.53 0.37-12.06 0.91-12.42 1.27-1.54 1.54 1.45 5.72 6.07 8.44 4.27 2.63 5.72 2.99 10.98 2.99 10.7 0 13.69 2.81 6.17 5.8-5.9 2.36-23.04 4.08-59.77 5.99-49.33 2.54-59.04 3.63-62.67 6.8-1.36 1.27-2.63 1.54-6.62 1-5.71-0.64-7.8-0.09-7.8 2.18 0 3.71 10.34 9.06 17.42 9.06 3.35 0 6.16 1.46 6.16 3.27 0 0.72-1.81 2.08-3.99 3.08-2.26 0.91-6.53 3.99-9.61 6.8l-5.53 5.17 7.25-0.63c8.53-0.82 11.52-0.27 12.16 2.27 0.36 1.54 1.18 1.81 5.53 1.81 4.62 0 5.17 0.27 5.98 2.18 1.55 4.26 5.81 3.53 12.61-2.18 3.9-3.27 7.35-4.72 7.35-2.99 0 0.45-1.91 3.17-4.09 6.07-4.62 6.17-4.35 7.8 1.55 7.8 3.99 0 6.71-1.18 8.88-3.9 2.54-3.08 5.63-1.45 8.17 4.08 3.35 7.17 5.62 7.08 17.05-0.63 4.08-2.72 7.52-4.99 7.7-4.99 0.19 0-0.18 2.99-0.9 6.62-2.63 13.7 2.17 14.24 18.32 1.91 1.9-1.46 3.26-2.18 3.08-1.73-4.9 11.7-4.72 12.25 2.99 11.97 4.72-0.18 6.26 0.19 8.71 2 1.63 1.18 3.17 1.99 3.26 1.81 0.18-0.18 0.73-1.27 1.27-2.26 2.09-4.09 7.8-3.18 8.8 1.36 0.73 3.44 2.99 4.17 10.34 3.35 5.53-0.63 9.52 0.18 8.43 1.82-3.08 4.53-29.92 13.78-52.33 17.95-23.67 4.45-29.02 4.26-38.27-1.18-7.52-4.44-13.51-5.8-14.42-3.26-0.63 1.63 3.09 5.8 7.35 8.25 1.36 0.73 0.27 0.82-4.08 0.27-3.27-0.45-12.15-1.18-19.86-1.72-10.43-0.73-16.96-1.81-26.21-4.17-17.5-4.45-19.68-4.08-13.15 1.99 5.44 4.9 18.59 10.98 27.02 12.34l7.26 1.18-8.34 0.63c-9.71 0.73-12.07 1.72-12.07 4.81 0 3.17 2.91 4.71 11.34 5.8 12.79 1.81 12.24 1.45 7.89 5.81-3.81 3.89-4.9 6.98-2.54 6.98 0.73 0 3.63-0.91 6.44-2 5.44-2.08 6.71-1.63 6.8 2.09 0 2.81 2.45 3.81 7.98 3.17 4.81-0.54 15.6-3.08 19.68-4.62 1.09-0.46 0.27 0.9-2.17 3.44-4.54 4.72-4.36 4.99 3.44 5.35 5.17 0.28 5.9 0.91 6.89 5.54 0.28 1.36 1 2.45 1.55 2.45 0.63 0 3.71-2.54 6.89-5.72l5.71-5.62-4.26 8.16c-5.44 10.34-5.17 11.79 1.81 11.07 5.44-0.55 12.52-3.81 17.32-7.99 3.81-3.35 4.09-2.35 1.27 4.99-3.26 8.8-8.07 11.34-37.36 20.05-17.32 5.16-20.95 5.25-34.55 0.81-10.25-3.35-22.86-4.99-28.12-3.63-2.9 0.73-2.9 1.27-0.18 5.35 1.18 1.73 2 3.36 1.82 3.63-0.55 0.55-5.44-0.45-14.42-2.9-9.53-2.54-16.87-3.36-19.32-2-1.09 0.55-1.99 1.46-1.99 1.91 0 0.45 2.53 3.81 5.62 7.34 3.17 3.63 5.08 6.35 4.35 6.08-9.97-3.81-29.75-5.98-36.55-4.08-3.72 1-2.99 4.08 1.64 6.71 6.89 3.9 14.96 6.08 24.94 6.53l9.52 0.54-5.72 4.45c-6.53 5.17-9.52 9.43-9.06 12.97 0.27 2.36 0.54 2.54 4.8 2.54h4.54l0.9 5.26c1 5.71 2.81 7.89 6.53 7.89 2.54 0 6.99 2.17 10.52 5.08 1.45 1.17 3.27 2.17 4.08 2.17 1.91 0 7.08-3.08 10.34-6.17l2.45-2.26 3.17 2.36c3.45 2.63 7.26 9.61 6.44 11.79-0.36 0.72-1.36 1.54-2.26 1.81-1.18 0.27-1.45 1-1.18 2.81l0.54 2.45-8.16-0.64c-6.98-0.54-8.25-0.36-8.71 0.82-0.72 1.9-6.16 3.36-12.87 3.36-5.26 0-11.88 1.17-12.88 2.17-1.18 1.18 0.9 5.08 3.81 6.89 4.17 2.63 10.79 3.09 22.03 1.55 5.08-0.64 9.25-1.09 9.25-1 0 0.09-2.99 1.81-6.71 3.9-11.7 6.35-14.69 10.34-10.88 14.06 1.72 1.81 1.45 1.81 8.34-0.37 6.81-2.17 8.89-2.26 5.35-0.36-1.54 0.82-2.44 1.99-2.26 2.9 0.27 1.27 1.45 1.54 6.89 1.45h6.53l-2.27 2.36c-1.27 1.27-2.26 2.63-2.26 2.99 0 1.45 5.71 0.46 12.06-2.08 3.81-1.45 7.25-2.72 7.8-2.72 1.99 0 0.9 2.63-1.73 4.53-6.16 4.45-1.45 6.62 8.07 3.72 8.17-2.45 8.35-2.45 7.62 0.91l-0.54 2.81 4.44-0.73 4.45-0.63-1.73 1.99c-3.26 3.63-6.71 3.9-48.61 4.54-22.22 0.27-40.9 0.9-41.53 1.27-2.09 1.36-1.09 2.45 3.99 3.9 5.44 1.54 11.97 6.62 10.88 8.34-1 1.63-6.53 2.81-16.32 3.45-10.7 0.72-16.42 3.08-16.42 6.62 0 1.63 0.91 2.81 3.18 4.08 2.63 1.63 4.62 1.9 11.79 1.81 7.07-0.09 10.15-0.63 17.32-2.9 11.97-3.99 14.24-3.81 9.43 0.72-3.54 3.36-9.25 11.07-9.8 13.34-1.08 4.71 5.35 5.07 16.06 0.72 7.16-2.9 7.43-2.72 8.25 4.99 0.27 2.72 1.09 6.44 1.72 8.16 1 2.81 1.45 3.18 3.81 2.9 4.08-0.45 12.88-5.62 16.23-9.43 2.73-3.26 3.09-3.44 4.45-2.08 1.9 1.9 1.9 2.17-0.91 11.6-1.27 4.45-2.18 8.17-1.9 8.44 1.54 1.63 12.33-6.26 25.84-18.87 12.16-11.33 13.88-11.88 6.35-1.9-2.27 2.9-3.81 6.08-4.08 8.25-0.45 3.54 0.82 7.44 2.45 7.44 0.45 0 3.99-2.72 7.8-6.08l6.98-6.07-0.63 4.35c-1.36 9.16-3.09 10.25-19.77 13.24-22.86 3.99-28.03 3.99-40.18-0.27-7.16-2.54-14.87-3.72-16.6-2.63-1.54 1-0.54 3.35 1.91 4.62 1.54 0.82-0.27 0.91-8.53 0.55-5.71-0.27-10.7-0.27-11.06 0.09-0.27 0.36 0.45 1.9 1.63 3.54 4.17 5.35 3.45 5.98-6.16 5.35-18.78-1.36-27.3 6.44-9.25 8.43 3.35 0.45 6.34 1.18 6.53 1.81 0.54 1.64-4.9 5.17-14.24 9.25-8.16 3.54-15.42 8.26-15.42 10.07 0 0.45 0.91 1.27 1.9 1.91 2.45 1.27 8.89 0.09 23.77-4.36 12.42-3.72 15.41-3.17 7.98 1.36-5.35 3.27-7.89 7.44-6.44 10.16 1.09 2.09 2.99 2.27 8.7 0.82 2.27-0.55 4.27-0.82 4.54-0.55 0.27 0.27-0.73 2.18-2.27 4.36-3.45 4.62-3.54 6.25-0.54 6.25 2.72 0 7.8-2.45 14.69-7.07 2.63-1.72 5.08-2.9 5.35-2.63 0.36 0.27 0.09 2.45-0.46 4.81-0.63 2.26-0.81 4.44-0.54 4.71 0.18 0.27 2-0.63 3.81-1.9 1.81-1.36 3.54-2.27 3.72-2 0.18 0.18-0.09 1.63-0.64 3.27-0.54 1.63-0.81 3.08-0.63 3.26 0.18 0.27 2.9-1.63 6.07-4.17 3.27-2.63 6.62-4.63 7.89-4.63 2 0 2.09 0.28 1.82 4.72l-0.27 4.81 3.17-0.18c1.72-0.19 6.71-2.09 11.06-4.36 7.62-3.9 11.61-5.08 11.61-3.26 0 1.54 3.18 1.9 8.16 1 2.63-0.55 4.99-0.73 5.26-0.55 1 1-6.16 3.45-21.31 7.17-18.68 4.71-23.85 6.89-23.85 9.97 0 4.81 4.45 5.44 17.32 2.36 4.45-1 8.53-1.72 9.16-1.54 0.55 0.18-2.72 4.35-7.34 9.16-7.98 8.43-9.16 10.61-5.63 10.61 3.36 0 15.78-3.72 22.77-6.8 7.52-3.27 9.97-3.81 9.97-2.27 0 0.45-1.81 3.72-4.08 7.25-2.27 3.54-4.08 7.26-4.08 8.26 0 1.63 0.45 1.9 4.35 1.72 6.26-0.36 6.44-0.27 7.26 2.9 0.36 1.63 1.36 3.09 2.18 3.27 0.72 0.18 3.62-1.64 6.43-3.9 2.82-2.27 5.26-4.08 5.54-4.08 0.27 0 0.54 1.81 0.54 3.9 0 3.26 0.36 4.17 2.09 4.89 5.44 2.54 16.59-2.72 23.49-11.06l4.62-5.44-0.82 4.53c-3.08 18.14 1.46 19.32 16.6 4.72 5.44-5.26 8.53-7.71 8.8-6.89 0.18 0.72 0.81 4.26 1.36 7.89 1.45 11.06 4.71 12.69 11.79 6.07 2.36-2.27 4.8-4.08 5.35-4.08 0.54 0 2.08 1.45 3.44 3.17 2.91 3.81 4.54 4 5.35 0.64 1-4.26 3-6.53 5.81-6.53 3.17 0 5.17-2.09 6.98-7.53 1.54-4.44 2.9-5.26 4.99-2.81 1.81 2.18 5.89 3.99 8.98 3.99 3.81 0 6.62-3.08 11.61-12.6 2.17-4.09 4.98-8.62 6.25-10.07 2.45-2.99 5.45-3.72 4.45-1.18-0.37 0.82-0.91 3.27-1.18 5.44-0.45 3.45-0.27 3.9 1.18 3.9 2.72-0.09 11.42-6.53 13.42-9.88 1-1.73 2.09-4.54 2.36-6.35l0.54-3.27 1.54 3.45c2.81 6.53 5.72 2.36 6.62-9.61 0.37-4.36 0.82-7.89 1.09-7.89 0.18 0 1.18 0.99 2.18 2.26 2.18 2.82 6.26 4.99 9.25 4.99 1.18 0 2.9 0.73 3.81 1.54 1.36 1.36 3.18 3.09 0.9 11.79-5.69 21.77-5.05 38.25-9.13 53.6-1.67 6.28 2.73 8.36 2.73 8.54 0 0.18 7.31-1.19 27.9-1.28l26.83 2.62 2.6-5.15c-7.03-0.69 1.93-3.91-0.24-8.09-3.2-6.19 4.89-18.63 0.64-35.55-1.06-4.22 0.55-8.16 0.91-8.52 1.45-1.45 4.45 1 8.89 7.25 6.98 9.89 11.61 12.16 9.07 4.45-0.64-1.72-0.82-3.45-0.46-3.81 0.82-0.91 2.82 1.9 6.9 9.98 1.9 3.9 4.26 7.34 5.08 7.79 0.9 0.46 4.17 1.09 7.25 1.37 3.08 0.36 7.44 1.54 9.8 2.63 3.99 1.9 4.26 1.99 5.07 0.45 1.45-2.45 3.45-1.91 8.8 2.54 4.81 3.99 8.25 5.17 8.43 2.9 0.1-0.54 0.1-2.9-0.09-5.17-0.18-3.99-0.18-3.99 1.55-2.54 0.9 0.91 3.62 2.45 6.07 3.45 4.17 1.9 4.36 1.9 6.17 0.27 3.08-2.81 13.33-2 27.84 2.09 2 0.63 2.09 0.45 1.45-3-0.54-3.26-0.27-3.99 1.82-5.89l2.35-2.27-2.17-2.63c-1.18-1.45-2.63-3.54-3.27-4.72-1.54-2.99 0.46-2.63 10.07 1.64 12.06 5.35 14.87 4.8 10.34-1.91l-2.27-3.26 3.26 1.63c2.36 1.18 4.36 1.54 6.62 1.18 3.18-0.54 3.45-0.36 4.36 2.27 1.54 4.35 6.44 10.97 8.16 10.97 0.91 0 3.08-1 4.9-2.27 1.81-1.27 3.72-2.26 4.17-2.26 1.09 0 5.8 5.26 7.98 8.97 0.91 1.55 1.9 2.82 2.18 2.82 0.27 0 1.45-2.63 2.54-5.9 1.17-3.26 2.72-5.89 3.35-5.89 0.64 0 2.27 1.45 3.54 3.17 4.44 5.8 6.89 5.89 12.6 0.63 2.91-2.81 3.18-5.89 0.64-9.7-1-1.54-1.54-3.45-1.27-4.26 0.27-0.91-0.36-3.45-1.36-5.72-1-2.26-1.45-4.08-1-4.08 0.36 0 4.54 3.36 9.25 7.53 10.79 9.61 15.87 13.33 18.41 13.33 1.27 0 3.27-1.36 4.99-3.26 2.27-2.63 2.81-3.99 2.54-6.35-0.18-1.72-0.18-3.08 0-3.08 0.18 0 2.81 1.81 5.89 3.99 9.71 6.8 18.87 10.52 21.22 8.61 1.36-1.18 0.55-3.08-3.62-8.25-1.45-1.81-2.36-3.72-2.09-4.17 0.27-0.55 3.45-1.73 6.89-2.54 3.54-0.91 6.35-1.91 6.35-2.18 0-0.27-3.08-3.08-6.8-6.17-11.7-9.79-8.62-9.97 10.07-0.81 14.6 7.25 17.41 8.25 19.4 6.98 2.09-1.27-0.18-4.81-4.89-7.34-2.27-1.18-4.17-2.45-4.17-2.73 0-0.27 3.8-0.81 8.52-1.08 4.99-0.37 10.43-1.27 13.24-2.36 4.53-1.72 8.16-4.17 8.16-5.53 0-0.37-3.53-0.91-7.89-1.27-18.14-1.36-58.31-8.89-66.29-12.34-5.71-2.54-9.25-5.35-9.25-7.34 0-2.09 0.91-2.09 6.71-0.37 2.45 0.73 5.98 1.37 7.98 1.37 2.81 0 3.45-0.37 3.45-1.82 0-1-1.27-2.63-2.72-3.81-1.46-1.09-2.73-2.26-2.73-2.72 0-0.36 4.9-0.63 10.8-0.45 7.89 0.09 11.15-0.18 12.06-1 1.63-1.63 0.09-3.81-4.63-6.44-2.08-1.18-3.62-2.36-3.35-2.63 0.36-0.27 5.35-0.54 11.24-0.63 11.16-0.09 15.06-1.09 14.51-3.9-0.18-1-2.54-2.27-7.07-3.72-3.72-1.18-7.44-2.27-8.16-2.54-0.73-0.27 2.08-1 6.26-1.63 11.42-1.73 12.69-4.17 4.44-8.8-3.36-1.9-3.45-2.09-1.45-2.63 1.18-0.27 6.17-0.18 11.15 0.18 12.61 1 18.59 1 18.59-0.09 0-1.54-8.16-6.26-11.69-6.8-5.36-0.91-9.35-2.99-8.98-4.81 0.27-1.36 1.63-1.54 11.24-1.54 7.8 0 11.43-0.36 12.52-1.27 0.81-0.63 1.27-1.54 1-1.9-0.64-1.09-7.99-2.72-18.87-4.08-12.69-1.73-19.5-3.09-20.13-4.08-0.91-1.37 4.26-3.45 16.87-6.72 6.71-1.72 14.51-3.99 17.41-5.07 8.16-3.09 12.97-7.99 9.25-9.44-2.54-0.9-14.78 1.09-33.37 5.54-5.35 1.27-10.07 2.08-10.34 1.81-0.27-0.36 2.81-3.72 6.89-7.62 13.42-12.88 8.43-13.6-15.15-2.27-8.34 4.09-17.41 7.99-20.13 8.71-6.44 1.91-19.68 2-27.3 0.18-18.59-4.35-57.76-21.58-78.71-34.55-8.89-5.53-11.43-7.98-12.43-11.7l-0.63-2.72 2.63 1.9c1.45 1.09 4.26 3.63 6.25 5.63 2.45 2.54 4.09 3.53 5.17 3.17 0.91-0.27 2.81 0.36 4.27 1.36 3.71 2.63 4.62 2.36 4.62-1.27 0-1.72 0.36-3.17 0.82-3.17 1.18 0 5.44 3.44 11.79 9.43l5.71 5.53-0.54-3.63c-1.64-9.34-1.73-14.05-0.46-14.05 2.18 0 14.42 6.25 20.23 10.24 9.61 6.72 10.52 6.35 8.88-3.62-0.54-3.36-0.81-6.35-0.54-6.71 0.18-0.37 1.81 0.18 3.54 1.36 3.72 2.54 8.16 3.53 11.7 2.54 2.81-0.73 3.53-1.73 5.07-5.9 1.27-3.54 3.27-3.08 7.98 2 4.99 5.26 14.24 11.88 16.69 11.88 2.72 0 2-3.99-1.54-8.35-9.61-11.88-10.34-13.42-6.26-13.42 1.27 0 4.17-1.36 6.44-2.99l4.17-2.9 10.25 0.27 10.34 0.18 2.81-2.72c3.36-3.18 4.35-3.27 13.97-1 10.61 2.54 15.23 2.99 18.04 1.91 5.81-2.18 0.55-6.44-16.86-13.61-6.44-2.63-11.61-5.08-11.61-5.62 0-0.45 0.72-0.63 1.63-0.36 9.79 2.99 18.86 4.44 28.75 4.44 12.51 0 17.96-1.36 18.41-4.53 0.54-3.81-5.99-5.9-21.86-7.17l-7.98-0.54 6.17-2.09c3.35-1.18 6.8-2.99 7.8-4.17 1.63-1.99 1.63-2.18 0-3.36-1.72-1.36-0.91-1.36-40.27 0.46-7.34 0.27-13.96 0.27-14.78 0-1.36-0.55-1.27-1.09 0.82-5.08 3.08-6.26 2.35-7.71-3.54-6.98-2.54 0.27-7.17 1.36-10.25 2.35-16.78 5.26-28.84 3.99-61.67-6.43-30.11-9.53-45.43-16.33-48.97-21.59-2.72-4.08-1.9-4.99 3.9-4.26 4.26 0.45 4.99 0.36 5.8-1.27 1.36-2.54 3.09-2.36 15.15 2.18 6.44 2.44 13.6 4.35 17.96 4.98 9.88 1.27 33.82 2 34.37 1.09 0.27-0.45-0.46-2.17-1.54-3.81-3.9-5.71-3.72-5.8 1.72-1.18 9.61 8.17 13.06 9.71 13.06 5.54 0-4.45 1.45-4.9 6.53-2.09 7.89 4.26 9.07 4.35 13.6 1.09 2.27-1.54 6.53-3.99 9.61-5.44 3.09-1.45 5.63-3.09 5.63-3.54 0-0.45-1.73-2.45-3.81-4.35-2.18-1.91-3.45-3.45-3-3.45 0.55-0.09 3.99 0.91 7.71 2.18l6.8 2.17 2.27-2.63c3.18-3.53 4.54-4.08 19.95-8.16 13.34-3.53 19.05-5.62 19.05-7.16 0-0.46 1.81-0.55 3.9-0.36 3.9 0.45 9.7-1.55 9.7-3.27 0-0.45-2.72-1.72-6.07-2.9l-6.17-2.18v-4.53c0-4.63-0.73-5.53-6.35-7.26-1.63-0.54-1.63-0.72 0.82-1.99 1.45-0.73 7.07-3 12.51-4.9 21.13-7.53 24.13-11.52 6.44-8.53-9.34 1.55-49.79 3-54.14 1.91-2.99-0.73-2.99-1.91 0.09-3.45 1.27-0.63 2.54-1.63 2.72-2.26 0.73-2.18-3.9-3.18-18.59-3.9-16.23-0.91-22.76-1.73-34.1-4.63-9.88-2.54-14.33-4.9-13.97-7.44 0.28-1.72 1.09-2.08 5.72-2.72 3.63-0.45 5.98-1.27 6.98-2.44 1-1.27 2.63-1.82 5.17-1.82 2.54 0 3.99-0.45 4.26-1.36 0.82-1.9 1.54-1.72 8.89 1.81 5.17 2.54 7.62 3.27 12.61 3.45 3.35 0.09 6.07 0 6.07-0.27 0-0.27-2.72-2.63-5.98-5.35-4.08-3.45-5.54-5.17-4.72-5.62 0.64-0.37 6.89-0.91 13.88-1.27l12.69-0.73-10.43-5.08-10.34-5.08 7.62-0.45c8.98-0.63 11.61-1.81 19.05-8.62 2.9-2.63 7.07-5.62 9.25-6.62 6.62-2.9 10.25-10.7 6.07-12.96-2.63-1.36-6.89-0.64-21.94 3.8-8.17 2.45-13.24 3.54-14.79 3.18-2.26-0.64-2.35-0.82-1.72-5.53 0.82-6.62 0.36-6.62-15.69-1.64-14.87 4.54-17.41 4.63-31.92 0.91-20.22-5.26-36.37-11.88-37-15.23-0.36-1.91 2.27-2.63 9.97-2.63 5.08 0 6.44-0.37 8.71-2.27 1.54-1.27 3.27-2.27 3.99-2.27 0.64 0 3.36 1.63 6.08 3.63 4.35 3.26 5.35 3.63 10.24 3.63 7.17 0 17.96-2.45 18.6-4.27 0.36-0.99-0.73-2.72-3.27-5.08-2.08-1.9-3.72-3.62-3.54-3.8 0.19-0.19 3.72 0.9 7.89 2.35 4.18 1.45 7.8 2.63 7.98 2.63 0.28 0 0.19-1.63-0.18-3.53-0.45-3-0.27-3.72 1.27-4.54 1-0.54 2.81-1 4.08-1 2.72 0 3.72-1.36 3.36-4.98-0.09-1.91 0.45-3.36 1.63-4.45 2.45-2.26 2.36-2.81-0.45-5.35-4.63-3.99-4.54-4.62 1.36-10.88 11.79-12.7 10.07-13.15-18.5-4.72-16.14 4.81-22.67 6.08-32.2 6.17-7.16 0.09-9.25-0.18-12.24-1.81-4.17-2.18-7.71-5.26-9.98-8.71-3.35-5.26 2.63-6.71 13.61-3.26 3.26 0.99 7.34 1.72 8.89 1.54 4.89-0.46 4.17-2.9-2.91-9.62-3.53-3.35-6.44-6.43-6.44-6.89 0-0.45 2.36-0.54 5.26-0.27 6.08 0.64 12.79-0.45 13.88-2.18 1-1.72-1-3.53-4.72-4.35l-3.08-0.63 3.63-1.91c5.35-2.81 10.52-8.98 8.89-10.61-0.28-0.27-2 0.27-3.9 1.27-6.44 3.27-14.6 4.08-40.81 3.99-26.94 0-38.55-1.27-47.25-4.99-6.62-2.9-7.17-4.08-2.09-4.71 5.53-0.64 6.17-1.36 5.08-6.44-1-4.9-0.36-5.26 3.63-1.82 3.53 2.91 10.97 6.72 13.33 6.72 0.91 0 1.99-0.64 2.27-1.46 0.45-1.27 1.45-1.45 5.07-0.99 4.54 0.54 4.72 0.45 7.99-3.45 0.63-0.82 2.63-1.36 4.71-1.36 4.44 0 8.16-1.36 8.16-2.99 0-1.27-6.89-8.16-14.05-14.15l-3.63-2.99 4.53 0.54c2.54 0.36 9.07 1.18 14.51 1.91 6.17 0.81 11.07 1.08 12.7 0.54 2.54-0.64 2.72-1 2.45-4.63-0.45-6.34 4.26-10.15 13.87-11.33 6.08-0.73 8.62-1.82 8.62-3.54 0-1.18-3.72-3.26-5.9-3.26-0.72 0-1.36-0.46-1.36-0.91 0-0.54 2.54-0.91 5.81-0.91 7.34 0 8.7-0.54 8.7-3.35q0-2.32 1.91-2.72c2.72-0.73 1.81-3.9-1.91-6.44-2.72-1.91-3.89-2.09-8.61-1.73-5.08 0.46-5.35 0.37-3.36-0.9 2.36-1.63 2.63-4.72 0.46-4.99-0.91 0-3.99 0-6.99 0.18-5.71 0.18-5.62 0.36-3.53-5.26 0.63-1.45-0.73-1.36-4.9 0.18-1.9 0.73-6.71 1.82-10.7 2.36-6.8 1-15.51 2.9-19.23 4.26-0.9 0.28 2-2.9 6.44-7.16 8.44-8.07 9.71-11.07 3.45-8.34-11.16 4.89-14.78 4.44-10.16-1.27 2.81-3.45 3.36-6.44 1.27-7.17-0.45-0.18-3.99 2-7.71 4.72-10.52 7.98-16.59 10.52-26.48 11.06-18.23 1.09-43.98-5.71-51.24-13.6-1.18-1.27-2.54-4.08-2.99-6.17-0.55-2.18-1.91-5.26-3.18-6.89-2.63-3.45-2.72-3.9-0.36-3.9 1.09 0 2.63 1.27 3.81 3.17 2.63 3.9 4.72 4.72 14.33 5.35 4.26 0.18 10.52 0.91 13.87 1.55 3.36 0.63 6.26 0.9 6.53 0.63 0.28-0.27 0.73-2.54 1.09-5.17 0.27-2.54 0.73-4.62 0.91-4.62 0.18 0 3.54 1.81 7.35 3.99 8.16 4.71 11.42 5.71 13.33 4.17 1.72-1.45 1.72-3.99 0-5.44-3.63-3 0-3.27 24.03-1.36 6.08 0.45 14.51-1.55 15.14-3.72 0.19-0.55-0.9-2.54-2.44-4.45-1.46-1.9-2.73-3.99-2.73-4.62 0-0.73 2.09-1.82 4.9-2.63 5.26-1.54 8.35-4.08 7.53-6.35-0.36-0.72-1.54-1.36-2.81-1.36-4.45 0-3.18-1.72 4.35-5.89 7.17-4.09 23.13-15.69 23.22-16.87 0-0.37-2.54-1.09-5.63-1.64-8.7-1.63-14.23-3.71-15.23-5.62-1.09-1.9-4.54-2.17-10.43-0.81-2 0.45-3.72 0.63-3.99 0.36-0.27-0.18 0.45-1.91 1.45-3.81 1-1.81 1.63-3.9 1.45-4.53-0.72-2-6.71-1.18-13.15 1.99-8.16 4.08-13.87 5.17-24.39 4.9l-8.53-0.27 3.99-2.54 3.99-2.63-0.45-6.26c-0.27-3.45-0.73-6.53-1-6.8-0.27-0.28-3.35 1.18-6.98 3.26-16.05 9.34-27.66 9.98-49.97 2.63-10.16-3.35-22.95-8.98-31.11-13.69-15.78-9.07-24.58-17.87-11.24-11.07 4.44 2.27 4.71 2.27 5.89 0.73 0.64-0.91 1.18-2.63 1.18-3.9 0-2.27 0.18-2.18 3.26 1.54 2.82 3.36 3.72 3.81 5.81 3.36 1.81-0.37 4.17 0.45 9.25 3.08 3.81 2 7.07 3.36 7.44 3.08 0.27-0.36 0.54-2.63 0.54-5.17 0-6.98 1-7.8 4.99-4.35 4.26 3.81 11.52 7.44 14.78 7.44 2.9 0 4.35-2.36 4.9-7.71 0.27-2.45 0.45-2.09 2.36 2.81 1.81 5.08 2.26 5.62 4.98 5.99 1.54 0.27 4.81 1.27 7.17 2.17l4.35 1.63 4.35-4.26c2.36-2.36 5.08-4.26 5.99-4.26 1.54 0 1.63-0.54 1.09-6.35-0.37-3.63-0.27-6.35 0.18-6.35 0.45 0 3.17 0.82 6.08 1.82 9.43 3.26 12.15 2.08 8.25-3.54-1.27-1.81-2.36-3.81-2.36-4.35 0-0.64 1.63-1.18 3.72-1.36l3.72-0.27-3.27-4.09c-6.26-7.8-3.08-11.06 4.45-4.53 2.26 1.99 5.16 3.9 6.43 4.17 2.36 0.64 11.98-0.09 12.79-0.91 0.18-0.18-0.54-2.08-1.72-4.08-2.81-4.89-1.72-6.53 4.99-7.89 5.53-1.18 10.97-3.99 16.5-8.88l3.63-3.18-15.15-0.09c-10.06 0-15.23-0.36-15.23-1 0-0.45 1-2.45 2.27-4.26 4.62-6.71 2.17-6.35-11.34 1.72-7.53 4.45-11.43 6.35-13.06 6.08l-2.36-0.27 2.36-3.54 2.36-3.44-3.63 0.63c-2.18 0.36-3.81 0.18-4.17-0.36-0.64-1 1.09-4.63 4.17-8.44 5.17-6.53-3.26-2.99-14.69 6.08-9.34 7.44-15.33 10.43-21.04 10.43-5.17 0-22.85-4.99-33.56-9.52-13.24-5.63-22.76-12.61-25.3-18.87-1.54-3.62-0.18-4.62 5.17-3.81 3.54 0.55 5.08 1.36 8.62 5.08 3.9 4.08 4.62 4.45 8.52 4.45h4.35l-0.54-4.54c-0.27-2.54-0.18-4.53 0.18-4.53 0.45 0 2.27 1.81 4.08 4.08 5.35 6.53 13.52 10.43 18.14 8.61 2.27-0.81 2.27-0.9 1.72-8.43-0.45-7.16-0.36-7.71 1.55-9.07 2.72-1.9 5.44-0.82 10.88 4.26 4.62 4.36 11.06 7.17 16.59 7.26 6.08 0.09 5.35-1.91-3.9-10.88-8.34-8.08-9.16-10.16-3.62-8.98 1.81 0.36 3.53 1.72 4.8 3.72 1.55 2.35 2.63 3.08 4.63 3.08 1.54 0 3.63 0.91 4.81 1.99 1.72 1.64 3.53 2.09 8.43 2.36 3.54 0.27 6.35 0 6.35-0.45 0-0.45-1.63-2-3.63-3.54-2-1.45-3.63-3.08-3.63-3.63 0-1.36 7.98-4.71 14.15-6.07 2.72-0.55 4.9-1.27 4.9-1.63 0-0.37-2-1.91-4.54-3.45-2.45-1.54-4.53-3.08-4.53-3.36 0-0.36 2.99-0.36 6.62 0 9.07 0.82 15.32-0.63 18.32-4.17 2.72-3.26 2.81-4.44 0.54-6.53-1.36-1.18-4.35-1.81-12.06-2.45-12.97-1.08-13.69-1.27-13.06-4.08 0.45-1.72 0.09-2.45-1.63-3.26-3.36-1.45-10.34 0.18-21.04 4.99-4.99 2.26-10.07 4.26-11.25 4.44-2.08 0.27-2.26 0-2.26-3.81 0-3.81-0.19-4.08-2.72-4.53-2.54-0.46-2.73-0.73-2.73-4.54 0-4.71-0.27-4.8-8.88-1.63-2.91 1-5.44 1.63-5.81 1.27-0.27-0.27-0.63-2.45-0.63-4.81-0.09-5.8-2-6.07-7.53-1.18-6.35 5.63-21.13 12.7-26.39 12.7-4.62 0-11.25-1.54-16.87-3.99l-3.63-1.54 3.81-3.81c3.9-3.99 4.72-6.89 2.54-8.71-0.72-0.63-5.71-1.09-12.42-1.27-12.15-0.27-14.6-0.99-19.14-5.8-5.98-6.26-12.42-29.38-8.79-31.65 1.99-1.18 3.08 1.72 3.53 9.43 0.46 7.62 0.73 8.25 4.72 14.24 4.62 6.89 7.16 8.98 9.88 8.16 2.36-0.82 5.17-6.53 6.08-12.42l0.73-4.81 1.54 4.53c2.9 8.62 10.61 14.97 17.95 14.97 4.99 0 5.63-1.36 3-6.44-2-4.08-2.91-8.07-1.64-8.07 0.28 0 1.27 0.45 2.27 0.9 1.45 0.82 1.91 0.64 2.54-1.27 1.81-4.62 4.81-3.99 6.44 1.55 1.36 4.53 10.61 13.87 16.23 16.5 3.45 1.54 3.9 1.54 5.17 0.27 0.82-0.72 1.63-3.17 1.91-5.35 0.63-4.89 1.72-7.16 3.44-7.16 0.82 0 1.36-0.82 1.36-1.91 0-1.72 0.64-1.36 4.54 2.27 4.53 4.26 6.16 4.9 7.89 3.18 0.45-0.46 4.17-1.73 8.07-2.72 7.98-1.91 18.32-6.63 19.13-8.62 0.73-1.81-1.08-3.63-5.89-5.9-5.53-2.63-10.16-6.07-10.16-7.52 0-2.27-2.54-3.36-10.15-4.63-8.71-1.45-14.79-3.44-17.96-5.89l-2.27-1.73 2.54-2.26c3.17-2.9 3.27-6.26 0.18-7.62-3.81-1.72-12.24-1.36-15.87 0.73-6.17 3.53-11.06 5.44-14.15 5.44-5.98 0-2.72-3.72 5.54-6.35 4.71-1.54 5.26-2.54 3.08-5.53-0.91-1.36-1.72-2.82-1.72-3.27 0-0.45 2.45-1.36 5.44-1.9 5.71-1.18 12.88-5.81 13.42-8.62 0.45-2.18-2.36-3.08-15.6-5.08-6.71-0.99-11.97-2.26-12.42-2.9-0.91-1.45 3.26-9.79 5.26-10.52 0.9-0.36 3.62 0.64 6.71 2.27 2.9 1.63 5.8 2.9 6.44 2.9 0.72 0 2.17-2.09 3.26-4.63 1.72-4.26 2.18-4.62 4.26-4.08 1.91 0.46 2.45 0.19 3.09-1.54 0.81-2.17 3.26-3.35 6.98-3.35 1 0 2.63-0.82 3.54-1.82 3.62-3.99-1.91-8.79-11.25-9.7-2.81-0.27-5.8-0.91-6.62-1.36-2.72-1.36-1.9-4.17 2-6.62 2.26-1.45 3.62-2.99 3.62-4.08 0-1.18 1.55-2.9 4.27-4.81 11.88-8.16 10.43-11.52-5.17-11.52-4.54 0-8.16-0.18-8.16-0.45 0-0.27 2.35-3.63 5.26-7.53 2.9-3.9 5.8-8.43 6.43-10.06 1.09-2.54 1.09-3.09-0.36-4.63-3.08-3.45-5.53-2.36-14.24 6.35-4.44 4.44-8.61 8.16-9.25 8.16-0.72 0-2.72-1.81-4.53-4.08-1.91-2.27-4.17-4.08-5.08-4.08-3.63 0-11.7 13.24-15.15 24.76-2.9 9.88-29.74 33.19-33.64 29.2-0.36-0.27-0.82-7.62-1.09-16.23-0.45-13.7-0.72-15.87-2.18-17.33-1.45-1.45-1.63-2.81-1.27-9.61 0.55-11.24 2.54-13.69 12.16-15.05l3.9-0.55-0.55 4.72c-1 8.61 2.81 9.7 10.16 2.72l4.9-4.63 3.62 1.36c4.18 1.73 9.35 1.18 11.52-1.27 1.36-1.54 1.27-1.81-1-4.89-3.26-4.26-12.78-12.15-15.23-12.61-1.09-0.27-3.45-0.63-5.26-1-1.72-0.27-3.99-1.08-4.99-1.81-2.9-2.18 0-3.36 7.35-2.81 19.86 1.54 24.85 1.63 28.02 0.54 4.62-1.54 4.26-4.53-0.73-6.16-1.99-0.64-5.17-2.54-7.07-4.36-2.99-2.63-3.99-3.08-6.26-2.63-5.17 1.18-2.9-2.08 7.08-9.88 9.79-7.62 10.52-10.7 2.35-9.16-4.53 0.81-21.04 8.7-23.67 11.33-1.17 1.09-2.26 1.82-2.44 1.64-0.19-0.18 0-1.91 0.45-3.9 1-4.36 0.27-7.71-1.54-7.71-3.72 0-13.52 15.78-14.51 23.49-0.46 3.26-0.82 3.81-2.27 3.44-1.18-0.36-2.99 0.55-5.35 2.72l-3.54 3.18v-5.72c0-7.89 2.09-17.14 5.08-22.58 1.36-2.45 5.53-8.25 9.25-12.78 7.44-9.16 14.69-19.68 14.69-21.13-0.09-3.09-3.26-4.36-7.71-3.18-4.35 1.18-9.25 5.71-11.51 10.43-2.45 5.35-3.99 6.53-5.99 4.54-1.27-1.27-1.63-4-1.99-14.88-0.55-14.96-1.09-16.41-7.98-23.12l-3.54-3.45zm-13.24 102.75c5.8 5.9 8.43 10.52 9.88 16.96 1 4.44 0.37 13.97-0.9 13.97-0.91 0-4.9-9.8-6.71-16.42-0.82-2.72-2.63-6.62-4.09-8.7-8.25-11.34-7.07-14.97 1.82-5.81zm-7.62 40.9c9.89 4.99 15.42 11.07 17.05 18.77 0.91 4.54-1.9 3.9-7.16-1.45-2.45-2.54-5.72-4.98-7.26-5.62-3.81-1.54-7.62-5.08-9.7-9.25-3.09-5.89-1.18-6.53 7.07-2.45zm78.63 22.31c2.27 0.91 1.72 2.45-1.91 5.99-8.07 7.52-20.95 15.6-26.84 16.68-2.18 0.37-3.99 1.36-4.9 2.72-0.72 1.18-1.9 2.18-2.63 2.18-1.9 0-3.26-3.54-2.72-6.89 1-5.26 2.36-5.9 12.24-5.62 9.53 0.27 10.98-0.19 10.98-3.27 0-2.45 2.27-4.62 5.62-5.44 1.45-0.27 2.72-1.36 3.08-2.63 1.18-3.99 3.36-5.17 7.08-3.72zm-20.14 47.07c9.44 0 11.89 0.91 9.44 3.45-0.82 0.81-3.99 1.63-7.35 1.99-6.53 0.73-8.43-0.09-15.87-6.71l-3.17-2.9 4.08 2.08c3.44 1.73 5.53 2.09 12.87 2.09zm20.05 5.98c1.36 0.82 1.72 0.64 2.17-0.9 0.55-2.27 3.72-2.54 4.54-0.46 0.63 1.82-2.54 5.17-6.98 7.17-4.63 2.08-6.35 0.91-6.35-4.54 0-4.62 0.63-5.44 3.08-3.62 1.09 0.72 2.63 1.81 3.54 2.35zm42.35 10.8c-1.27 2.35-4.44 3.17-6.08 1.54-1.63-1.63-0.9-3.18 1.91-4.26 2.81-1.09 5.35 0.54 4.17 2.72zm-70.65 50.06c0.91 4.62 0.91 19.31 0 22.49l-0.63 2.17-1.82-1.81c-1.36-1.36-2.08-3.63-2.45-7.71-0.63-5.8 0.37-17.86 1.64-19.86 0.99-1.63 2.36 0.27 3.26 4.72zm-23.03 35.82c0.36 1-2.09 3.9-3.18 3.9-0.36 0-1.27-0.45-1.99-0.91-1.18-0.81-1-1.18 0.81-2.81 2.27-1.81 3.81-1.9 4.36-0.18zm23.12 12.88c-0.27 2.08-0.63 2.63-1.18 1.81-0.99-1.54-1.08-7.53-0.18-8.43 1-1 1.91 3.17 1.36 6.62zm-35.55-5.08c0 1.72-1.9 3.35-3.81 3.35-1.63 0-2.26-2.63-0.99-3.9 1.08-1.08 4.8-0.63 4.8 0.55zm-72.73 9.16c4.72 4.44 7.89 5.98 12.06 5.98 3.36 0 5.62-1.08 10.25-5.17 1.99-1.63 4.53-2.99 5.71-2.99 1.91 0 2.18 0.36 1.91 2.9-0.27 2.72-0.09 3 2.63 3.27 2.08 0.18 3.62-0.45 5.98-2.45 3.45-3.08 6.44-3.63 7.35-1.27 0.91 2.18-2.63 5.44-7.98 7.44-6.71 2.45-21.86 4.8-32.38 4.89-8.89 0.19-9.16 0.09-11.33-2.35-2.36-2.72-5.35-11.79-4.45-13.34 1.36-2.26 5.99-0.9 10.25 3.09zm58.22-3.09c0 0.46-1 1.55-2.36 2.36-2.53 1.73-4.44 0.73-3.44-1.72 0.63-1.63 5.8-2.18 5.8-0.64zm211.58 158.8c1.18 1.91 0.18 4.54-1.45 3.9-1.54-0.54-3.45-4.44-2.63-5.26 0.91-1 3.08-0.18 4.08 1.36zm-253.2 35.64c-1.55 1.82-17.24 9.53-20.68 10.16-5.62 1.09-3.36-1.9 4.08-5.35 12.06-5.71 18.95-7.71 16.6-4.81zm267.17 127.69c2.54 1 2.45 1.09-2 1.64-8.25 1.17-20.95-0.55-15.14-2.09 3.26-0.91 14.69-0.54 17.14 0.45zm62.84 16.15c0 0.45-1.36 0.9-3.08 0.9-1.72 0-3.45-0.45-3.72-0.9-0.36-0.55 0.91-0.91 3.09-0.91 2.08 0 3.71 0.36 3.71 0.91zm2.72 75.27c3.9 1.99 4.99 4.17 1.64 3.08-3.09-0.91-6.9-2.9-7.53-3.99-0.91-1.54 2.09-1 5.89 0.91zm-525.99 120.61c-1.09 2.09-5.17 3.36-6.53 2-1-1 3.08-3.72 5.89-3.81 1.36 0 1.45 0.27 0.64 1.81zm55.32 32.29c3.17 3.27 5.71 5.8 5.89 5.62 0.09-0.18 1.82-2.72 3.81-5.71 5.53-8.25 5.81-8.34 9.25-3.99l2.99 3.63 2.09-1.91c2.27-2.08 2.9-1.63 4.99 3.45 1.45 3.81 4.35 5.98 6.07 4.53 0.64-0.54 1.18-1.54 1.18-2.17 0-1.91 3.99-3.09 10.25-3l5.62 0.09-7.7 3.72c-8.17 3.99-9.07 4.17-31.2 4.27-1.91 0-2.45 0.36-2 1.36 1 2.72-2.08 2.35-9.43-0.82-8.34-3.72-9.16-3.81-12.15-1.81-2 1.17-2.54 1.17-5.44 0-1.82-0.73-3.27-1.91-3.27-2.54 0-0.64 2.54-3.99 5.63-7.44 4.98-5.53 5.71-5.99 6.71-4.63 0.63 0.82 3.62 4.18 6.71 7.35zm64.39-4.26c0 1-4.9 2.81-7.53 2.81-1.72 0-1.81-0.09-0.18-1.81 1.63-1.82 7.71-2.63 7.71-1zm-31.47 123.06c1 1-1.18 3.99-2.9 3.99-2.45 0-3-1.08-1.27-2.9 1.45-1.63 3.17-2.08 4.17-1.09z"/>
		<path id="Shape 1" fill-rule="evenodd" class="s0" d="m356.45 1131.4c-3.58-7.32-49.47 341.05-68.9 385.36l154.36 0.72c-30.15-32.25-25.01-391.87-29.31-390.14z"/>
	</g>
</svg>